<?xml version="1.0" standalone="no"?><!DOCTYPE svg PUBLIC "-//W3C//DTD SVG 1.1//EN" "http://www.w3.org/Graphics/SVG/1.1/DTD/svg11.dtd"><svg width="128" height="128" viewBox="0 0 128 128" version="1.1" xmlns="http://www.w3.org/2000/svg" xmlns:xlink="http://www.w3.org/1999/xlink"><defs><style type="text/css"><![CDATA[
@font-face { font-family: ifont; src: url("//at.alicdn.com/t/font_1442373896_4754455.eot?#iefix") format("embedded-opentype"), url("//at.alicdn.com/t/font_1442373896_4754455.woff") format("woff"), url("//at.alicdn.com/t/font_1442373896_4754455.ttf") format("truetype"), url("//at.alicdn.com/t/font_1442373896_4754455.svg#ifont") format("svg"); }

]]></style></defs><g class="transform-group"><g transform="scale(0.125, 0.125)"><path d="M512.001535 66.181305c-244.721631 0-443.106933 198.385303-443.106933 443.10591 0 244.720607 198.385303 443.10591 443.106933 443.10591 244.719584 0 443.103864-198.385303 443.103864-443.10591C955.105399 264.566608 756.721119 66.181305 512.001535 66.181305zM511.999488 892.515387c-211.650421 0-383.228171-171.57775-383.228171-383.228171 0-211.651444 171.576727-383.228171 383.228171-383.228171 211.652468 0 383.228171 171.576727 383.228171 383.228171C895.22766 720.937636 723.651956 892.515387 511.999488 892.515387zM682.38304 527.074324 523.689738 484.33594 523.689738 214.662011 460.424856 214.662011 460.424856 530.96391 462.865441 530.96391 651.58357 580.972884Z" fill="#f5f2f2"></path></g></g></svg>